<?xml version="1.0" encoding="utf-8"?>
<!-- Generator: Adobe Illustrator 28.0.0, SVG Export Plug-In . SVG Version: 6.00 Build 0)  -->
<svg version="1.1" id="Layer_1" xmlns="http://www.w3.org/2000/svg" xmlns:xlink="http://www.w3.org/1999/xlink" x="0px" y="0px"
	 viewBox="0 0 140 76" style="enable-background:new 0 0 140 76;" xml:space="preserve">
<style type="text/css">
	.st0{fill:#FFFFFF;}
</style>
<g>
	<g>
		<path class="st0" d="M61.5,11.4c0,0.6,0.1,1.3,0,2.1c0,0.8-0.1,1.5-0.2,2.2c-0.3-0.1-0.8-0.1-1.3-0.1c-0.5,0-1.2,0-2.1,0.1H58h0
			c0,0,0,0,0,0c0,0,0,0,0,0c0,0.1,0,0.2,0,0.4c0,0.2,0,0.5,0,0.9c0,0.4,0,0.9,0,1.6c0,0.7,0,1.5,0,2.6c0,1,0,2.3,0.1,3.8
			c0,1.5,0,3.2,0.1,5.2v0v0c-0.3,0.1-0.7,0.1-1.1,0.1c-0.4,0-0.8,0-1.2,0c-0.4,0-0.8,0-1.2,0c-0.4,0-0.7,0-1.1,0.1c0-0.1,0-0.4,0-1
			c0-0.6,0-1.5,0-2.6c0-1.2,0-2.6,0-4.4s-0.1-4-0.2-6.5l0,0c-0.2-0.1-0.5-0.2-0.8-0.2c-0.3,0-0.7,0-1-0.1c-0.3,0-0.6,0-0.9,0
			c-0.3,0-0.5,0-0.6-0.1c0-0.1-0.1-0.3-0.1-0.5c0-0.3,0-0.6-0.1-1.1c0-0.4,0-0.9,0-1.3c0-0.5,0-0.9,0.1-1.4c0,0,0,0,0,0c0,0,0,0,0,0
			c1.9,0,3.8,0,5.8,0C57.7,11.1,59.7,11.2,61.5,11.4z"/>
		<path class="st0" d="M73.9,11.1l0.7,19.2c-0.3,0.1-0.6,0.1-1,0.1c-0.4,0-0.7,0-1,0c-0.3,0-0.7,0-1,0c-0.3,0-0.6,0-0.8,0h0
			c-0.1-0.6-0.2-1.2-0.2-1.9c0-0.6,0-1.3-0.1-1.9c0-0.6,0-1.3,0-1.9c0-0.6-0.1-1.2-0.1-1.8l0,0c-0.5-0.1-1.1-0.1-1.6-0.1
			c-0.5,0-1.1,0.1-1.6,0.2c-0.1,0.6-0.1,1.3-0.1,1.9c0,0.6,0,1.2,0,1.9c0,0.6,0,1.2,0,1.8c0,0.6-0.1,1.2-0.2,1.8
			c-0.2,0.1-0.5,0.2-0.9,0.2c-0.4,0-0.7,0-1.1-0.1c-0.4,0-0.7-0.1-1-0.1c-0.3,0-0.6,0-0.7,0.1c0-0.5-0.1-1.2-0.1-2.1
			c0-0.9-0.1-1.9-0.1-3c0-1.1-0.1-2.3-0.1-3.5c0-1.2-0.1-2.5-0.1-3.7c0-1.2,0-2.5,0-3.6c0-1.2,0-2.2,0-3.1v0h0H63
			c0.3,0.1,0.6,0.1,0.9,0.1c0.3,0,0.6,0,0.9-0.1c0.3,0,0.6,0,0.9,0c0.3,0,0.6,0,0.8,0.1c0.2,1.3,0.2,2.5,0.2,3.7
			c0,1.2,0.1,2.4,0.3,3.5h0c0.5,0.1,0.9,0.1,1.5,0.1c0.5,0,1-0.1,1.5-0.1h0c0.1-1.3,0.2-2.4,0.2-3.5c0-1.1,0-2.3-0.1-3.6
			c0.2-0.1,0.5-0.1,0.8-0.2c0.3-0.1,0.7-0.1,1-0.1c0.3,0,0.7,0,1,0C73.3,11.1,73.7,11.1,73.9,11.1z"/>
		<path class="st0" d="M88.2,26.7L88.2,26.7c0,0.6,0,1.2,0,1.9c0,0.6-0.1,1.2-0.2,1.8c-1.9,0-3.8,0-5.7,0.1c-1.9,0.1-3.8,0-5.5-0.1
			c0-1.6,0-3.2-0.1-4.7c0-1.6-0.1-3.1-0.1-4.7c0-1.6,0-3.1,0-4.7c0-1.6,0.1-3.1,0.2-4.7c0.7,0,1.5-0.1,2.3-0.1c0.8,0,1.7,0,2.5-0.1
			c0.8,0,1.7,0,2.4-0.1c0.8,0,1.5,0,2.1,0c0.6,0,1.1,0,1.5,0c0.4,0,0.5,0,0.5,0.1c0.1,0.6,0.1,1.3,0.1,1.9c0,0.7-0.1,1.3-0.1,1.9v0
			c-0.6,0.1-1.2,0.2-1.8,0.2c-0.6,0-1.2,0-1.8,0c-0.6,0-1.2,0-1.8,0c-0.6,0-1.2,0-1.8,0.1h-0.1l0,0c0,0.5,0,1.1-0.1,1.6
			c-0.1,0.6,0,1.1,0.1,1.6l0,0c0.5,0,1.1,0.1,1.7,0.1c0.6,0,1.1,0,1.7,0v0c0.1,0.6,0.1,1.2,0.1,1.9c0,0.6,0,1.3,0,1.9
			c-0.3,0.1-0.6,0.1-0.9,0.1c-0.3,0-0.7,0-1,0c-0.3,0-0.6,0-0.9,0c-0.3,0-0.4,0.1-0.5,0.1c-0.1,0.5-0.1,1.1-0.1,1.8
			c0,0.7,0.1,1.2,0.1,1.6l0,0c1.2,0,2.4,0,3.6,0.1C85.7,26.7,86.9,26.8,88.2,26.7z"/>
		<path class="st0" d="M24.2,45.8L24.2,45.8c0,0.2,0,0.4,0,0.6c0,0.2,0,0.3,0,0.5c-0.2,1.3-0.6,2.5-1.3,3.5c-0.7,1.1-1.5,2-2.5,2.7
			c-1,0.7-2.1,1.3-3.4,1.6c-1.2,0.3-2.5,0.4-3.8,0.2c0,0.4,0,0.7,0,1.1c0,0.4,0,0.9,0,1.6s0,1.6,0,2.7c0,1.1,0,2.7,0.1,4.6v0
			c0,0,0,0-0.1,0c0,0,0,0-0.1,0c-0.4,0.1-0.8,0.2-1.4,0.2c-0.6,0-1.2,0.1-1.8,0.1c-0.6,0-1.2,0-1.9,0c-0.6,0-1.1-0.1-1.6-0.1
			c-0.1-1.9-0.1-4.1-0.1-6.3s0-4.6,0-7c0-2.4,0-4.8,0-7.2c0-2.4-0.1-4.7-0.1-7c1.1-0.3,2.3-0.5,3.6-0.6c1.3-0.1,2.6-0.1,3.9,0
			c1.3,0.1,2.6,0.3,3.8,0.7c1.2,0.4,2.3,0.9,3.3,1.6c0.9,0.7,1.7,1.6,2.3,2.7C23.7,43,24.1,44.2,24.2,45.8z M17.2,44.1
			c-0.7-0.5-1.4-0.9-2.3-1c-0.9-0.1-1.7-0.1-2.6,0.1c-0.1,0-0.1,0-0.1,0c0,0.5,0,1,0,1.5c0,0.5,0,1.1,0,1.6c0,0.5,0,1,0.1,1.5
			c0,0.5,0.1,0.9,0.3,1.3h0.1c0.4,0,0.9,0,1.4-0.1c0.5,0,1,0,1.4-0.1c0.5-0.1,0.9-0.2,1.4-0.3c0.4-0.1,0.8-0.4,1.1-0.7
			c0.2-0.3,0.4-0.6,0.5-1c0.1-0.4,0.1-0.7,0-1.1c-0.1-0.4-0.2-0.7-0.4-1C17.8,44.6,17.5,44.3,17.2,44.1z"/>
		<path class="st0" d="M43.2,60L43.2,60c0.1,0.9,0.1,1.8,0,2.7c0,0.9-0.1,1.8-0.4,2.6c-2.7,0-5.5,0-8.3,0.1c-2.8,0.1-5.5,0-8.1-0.2
			c0-2.3,0-4.6-0.1-6.9c-0.1-2.3-0.1-4.6-0.1-6.8c0-2.3,0-4.5,0-6.8c0-2.3,0.1-4.5,0.2-6.8c1-0.1,2.2-0.1,3.4-0.1
			c1.2,0,2.4-0.1,3.7-0.1c1.2,0,2.4-0.1,3.6-0.1c1.1,0,2.2,0,3,0c0.9,0,1.6,0,2.1,0c0.5,0,0.8,0.1,0.8,0.1c0.1,0.9,0.2,1.9,0.1,2.8
			c-0.1,1-0.1,1.9-0.1,2.8v0c-0.9,0.2-1.7,0.3-2.6,0.3c-0.9,0-1.7,0.1-2.6,0c-0.9,0-1.8,0-2.6,0c-0.9,0-1.8,0-2.6,0.1h-0.1l0,0
			c0,0.8,0,1.6-0.1,2.4c-0.1,0.8,0,1.6,0.1,2.3l0,0c0.8,0.1,1.6,0.1,2.4,0.1c0.8,0,1.7,0,2.5,0v0c0.1,0.9,0.2,1.8,0.1,2.7
			c-0.1,0.9-0.1,1.9,0,2.8c-0.4,0.1-0.9,0.2-1.4,0.2c-0.5,0-1,0-1.5,0c-0.5,0-0.9,0-1.3,0c-0.4,0-0.6,0.1-0.8,0.2
			c-0.1,0.8-0.2,1.6-0.1,2.6c0,1,0.1,1.8,0.1,2.4l0,0c1.8,0,3.5,0,5.2,0.1C39.6,60,41.4,60,43.2,60z"/>
		<path class="st0" d="M60.9,65.6c-0.5,0-1.1,0-1.8-0.1c-0.7-0.1-1.3-0.1-1.8-0.1c-0.9-2-1.8-3.9-2.6-5.7c-0.9-1.9-1.6-3.6-2.2-5.3
			L52,53.1c-0.1-0.3-0.2-0.6-0.3-0.8c-0.1-0.3-0.2-0.4-0.2-0.4c0,0-0.1,0.3-0.1,1c0,0.6-0.1,1.5-0.1,2.4c0,1,0,2.1-0.1,3.3
			c0,1.2,0,2.4,0,3.5c0,0.6,0,1.2,0,1.8c0,0.6,0,1.1,0,1.5c-0.3,0.1-0.6,0.1-0.9,0.2c-0.3,0-0.6,0-0.9,0c-0.6,0-1.3,0-1.9-0.1
			c-0.7-0.1-1.3-0.1-1.9-0.1v-2.8c0-2.5,0-4.9-0.1-7.2c0-2.3-0.1-4.7-0.1-7.2c0-1.8,0-3.7,0.1-5.5c0.1-1.8,0.1-3.6,0.3-5.3
			c0.3-0.1,0.6-0.1,0.9-0.1c0.3,0,0.6,0,0.9,0c0.2,0,0.4,0,0.8,0c0.4,0,0.7,0,1.1,0.1c0.4,0,0.7,0.1,1,0.1c0.3,0.1,0.4,0.1,0.4,0.2
			c0.2,0.5,0.4,0.9,0.5,1.2c0.2,0.3,0.3,0.6,0.5,0.9c0.1,0.3,0.3,0.6,0.5,1c0.2,0.4,0.4,0.8,0.6,1.4c0.1,0.1,0.2,0.4,0.4,0.8
			c0.2,0.4,0.4,0.8,0.6,1.3c0.2,0.5,0.5,1,0.8,1.6c0.3,0.5,0.5,1,0.7,1.5c0.2,0.4,0.4,0.8,0.6,1.1c0.2,0.3,0.3,0.5,0.3,0.5
			c0.1-0.1,0.1-0.3,0.2-0.8c0.1-0.5,0.1-0.9,0.1-1.4c0-1.1,0-2.1-0.1-3c0-0.9-0.1-1.9-0.1-2.8c0-0.6,0-1.1,0-1.7
			c0-0.6,0-1.2,0.1-1.9c0.9-0.2,1.9-0.2,2.9-0.2c1,0,1.9,0.1,2.6,0.2v12.9c0,1.1,0,2.3,0,3.4c0,1.1,0,2.3,0,3.4c0,0.8,0,1.5,0,2.2
			c0,0.7,0,1.5,0,2.2c0,0.5,0,1.1,0,1.6c0,0.5,0,1.1,0,1.6v0.8c-0.1,0-0.2,0.1-0.4,0.1C61.7,65.6,61.4,65.6,60.9,65.6z"/>
		<path class="st0" d="M73.6,51.5c0.3-0.2,0.9-0.3,1.7-0.4c0.8,0,1.6,0,2.5,0c0.9,0,1.7,0.1,2.5,0.1c0.8,0.1,1.3,0.1,1.5,0.1h0.1
			l0,0c0.2,1.4,0.3,2.9,0.3,4.5c0.1,1.6-0.1,3.1-0.3,4.5c-0.1,1.4-0.5,2.4-1.2,3.1c-0.7,0.7-1.5,1.3-2.6,1.6
			c-0.7,0.2-1.4,0.4-2.1,0.5c-0.7,0.1-1.5,0.3-2.2,0.3c-0.7,0.1-1.5,0.1-2.2,0c-0.7-0.1-1.4-0.3-2-0.5c-1.1-0.5-1.9-1.1-2.4-1.8
			c-0.6-0.8-1-1.7-1.3-2.9c-0.1-0.3-0.2-0.7-0.3-1.2c-0.1-0.5-0.2-1-0.2-1.6c-0.1-0.9-0.1-1.6-0.2-2.3c-0.1-0.7-0.1-1.4-0.1-2.1
			c0-0.7-0.1-1.4-0.1-2.2c0-0.8,0-1.6,0-2.6c0-0.9,0.1-1.7,0.1-2.6c0.1-0.9,0.1-1.8,0.3-2.6c0.1-0.9,0.4-1.7,0.7-2.6
			c0.3-0.8,0.9-1.5,1.7-2c0.5-0.5,1.1-0.8,1.8-1c0.7-0.2,1.4-0.4,2.1-0.5c1.5-0.2,2.9-0.1,4.2,0.1c1.3,0.3,2.5,0.8,3.4,1.5
			c1,0.7,1.7,1.7,2.2,2.9c0.5,1.2,0.6,2.6,0.4,4.2l0,0.2c-0.1,0.1-0.2,0.1-0.4,0.1s-0.5,0-0.9,0c-0.4,0-0.7,0-1,0
			c-0.3,0-0.6,0-0.8,0c-0.3,0-0.6,0-0.9,0c-0.3,0-0.6-0.1-1-0.1c-0.1-0.3-0.2-0.6-0.3-1c-0.1-0.4-0.3-0.7-0.6-1.1
			c-0.2-0.3-0.5-0.6-0.8-0.9c-0.3-0.3-0.6-0.4-1-0.4c-0.5,0-0.9,0-1.3,0c-0.4,0-0.8,0.2-1.1,0.5c-0.1,0.1-0.1,0.2-0.2,0.4
			c-0.1,0.2-0.2,0.4-0.2,0.7c-0.2,0.6-0.3,1.4-0.5,2.3c-0.1,0.9-0.2,1.9-0.3,2.9c-0.1,1-0.1,2.1,0,3.2c0,1.1,0.1,2.1,0.2,3.1
			c0.1,0.6,0.2,1.2,0.3,1.9c0.2,0.7,0.5,1.2,1,1.6c0.2,0.2,0.5,0.3,0.9,0.4c0.4,0.1,0.8,0,1.3,0c0.4-0.1,0.8-0.2,1.2-0.3
			c0.3-0.1,0.5-0.3,0.8-0.5c0.2-0.2,0.4-0.5,0.5-0.9c0-0.1,0.1-0.3,0.1-0.5c0-0.3,0.1-0.5,0.1-0.8c0-0.3,0-0.5,0-0.7
			c0-0.2-0.1-0.3-0.1-0.4c-0.2,0-0.4,0-0.7,0c-0.3,0-0.6,0-0.9,0c-0.3,0-0.6,0-0.8,0c-0.3,0-0.4,0-0.6-0.1c-0.1-0.4-0.1-0.8-0.1-1.1
			c0-0.3,0-0.6,0-0.9c0-0.3,0-0.6,0-0.9c0-0.3,0-0.7-0.1-1.2v0C73.5,51.5,73.5,51.5,73.6,51.5L73.6,51.5z"/>
		<path class="st0" d="M101.9,38.6c0.2,3.4,0.2,6.9,0.2,10.3c-0.1,3.5-0.3,6.9-0.6,10.4c-0.2,1.8-0.9,3.3-2,4.5
			c-1.1,1.2-2.6,1.9-4.6,2.1c-1.1,0.1-2.3,0.1-3.5-0.1c-1.2-0.2-2.3-0.6-3.3-1.1c-1-0.5-1.8-1.2-2.4-2.1c-0.7-0.9-1-1.9-1.1-3.1
			c0-3.5,0-7.1,0.1-10.6c0.1-3.6,0.1-7.1,0-10.6l0,0h0c0.4,0,0.8,0,1.3,0c0.5,0,1,0,1.5,0c0.5,0,1,0,1.5,0.1c0.5,0,0.9,0.1,1.3,0.2
			v0c-0.3,6.5-0.2,13,0.4,19.6c0.2,0.6,0.5,1.1,1,1.4c0.5,0.3,1,0.4,1.5,0.4c0.5,0,1-0.2,1.5-0.6c0.5-0.3,0.7-0.8,0.9-1.4
			c0.1-3.2,0.2-6.5,0.2-9.8c0-3.3,0.1-6.5,0.1-9.6c0.3,0,0.8-0.1,1.3-0.1c0.5-0.1,1.1-0.1,1.7-0.1c0.6,0,1.1,0,1.6,0
			C101.1,38.3,101.6,38.5,101.9,38.6z"/>
		<path class="st0" d="M111.2,37.3h1v0.2c0,2.3,0,4.6-0.1,6.9c-0.1,2.3-0.1,4.6-0.2,7c0,2.3,0,4.7,0,7c0,2.3,0.1,4.6,0.2,6.9
			c-0.2,0.2-0.7,0.3-1.3,0.4c-0.7,0-1.4,0-2.2,0c-0.8,0-1.5-0.1-2.3-0.1c-0.7,0-1.2,0-1.5,0.1c0.2-2.4,0.3-4.8,0.2-7.2
			c0-2.4-0.1-4.8-0.1-7.2c-0.1-2.4-0.1-4.7-0.1-7.1c0-2.3,0.1-4.6,0.3-6.9v-0.1c0.1,0,0.4,0,0.8,0c0.4,0,0.7,0.1,0.9,0.1
			c0.5,0,1,0.1,1.7,0.1C109.1,37.3,110,37.3,111.2,37.3z"/>
		<path class="st0" d="M130.7,65.6c-0.5,0-1.1,0-1.8-0.1c-0.7-0.1-1.3-0.1-1.8-0.1c-0.9-2-1.8-3.9-2.6-5.7c-0.9-1.9-1.6-3.6-2.2-5.3
			l-0.4-1.2c-0.1-0.3-0.2-0.6-0.3-0.8c-0.1-0.3-0.2-0.4-0.2-0.4c0,0-0.1,0.3-0.1,1c0,0.6-0.1,1.5-0.1,2.4c0,1,0,2.1-0.1,3.3
			c0,1.2,0,2.4,0,3.5c0,0.6,0,1.2,0,1.8c0,0.6,0,1.1,0,1.5c-0.3,0.1-0.6,0.1-0.9,0.2c-0.3,0-0.6,0-0.9,0c-0.6,0-1.3,0-1.9-0.1
			c-0.7-0.1-1.3-0.1-1.9-0.1v-2.8c0-2.5,0-4.9-0.1-7.2c0-2.3-0.1-4.7-0.1-7.2c0-1.8,0-3.7,0.1-5.5c0.1-1.8,0.1-3.6,0.3-5.3
			c0.3-0.1,0.6-0.1,0.9-0.1c0.3,0,0.6,0,0.9,0c0.2,0,0.4,0,0.8,0c0.4,0,0.7,0,1.1,0.1c0.4,0,0.7,0.1,1,0.1c0.3,0.1,0.4,0.1,0.4,0.2
			c0.2,0.5,0.4,0.9,0.5,1.2c0.2,0.3,0.3,0.6,0.5,0.9c0.1,0.3,0.3,0.6,0.5,1c0.2,0.4,0.4,0.8,0.6,1.4c0.1,0.1,0.2,0.4,0.4,0.8
			c0.2,0.4,0.4,0.8,0.6,1.3c0.2,0.5,0.5,1,0.8,1.6c0.3,0.5,0.5,1,0.7,1.5c0.2,0.4,0.4,0.8,0.6,1.1c0.2,0.3,0.3,0.5,0.3,0.5
			c0.1-0.1,0.1-0.3,0.2-0.8c0.1-0.5,0.1-0.9,0.1-1.4c0-1.1,0-2.1-0.1-3c0-0.9-0.1-1.9-0.1-2.8c0-0.6,0-1.1,0-1.7
			c0-0.6,0-1.2,0.1-1.9c0.9-0.2,1.9-0.2,2.9-0.2c1,0,1.9,0.1,2.6,0.2v12.9c0,1.1,0,2.3,0,3.4c0,1.1,0,2.3,0,3.4c0,0.8,0,1.5,0,2.2
			c0,0.7,0,1.5,0,2.2c0,0.5,0,1.1,0,1.6c0,0.5,0,1.1,0,1.6v0.8c-0.1,0-0.2,0.1-0.4,0.1C131.5,65.6,131.1,65.6,130.7,65.6z"/>
	</g>
</g>
</svg>
