<?xml version="1.0" encoding="utf-8"?>
<!-- Generator: Adobe Illustrator 28.0.0, SVG Export Plug-In . SVG Version: 6.00 Build 0)  -->
<svg version="1.1" id="Layer_1" xmlns="http://www.w3.org/2000/svg" xmlns:xlink="http://www.w3.org/1999/xlink" x="0px" y="0px"
	 viewBox="0 0 102 32" style="enable-background:new 0 0 102 32;" xml:space="preserve">
<style type="text/css">
	.st0{fill:#FFFFFF;}
	.st1{fill:#9561A7;stroke:#050505;stroke-width:0.2174;stroke-miterlimit:10;}
</style>
<g>
	<g>
		<path class="st0" d="M46.9,2.4c0,0.3,0,0.7,0,1.1c0,0.4,0,0.8-0.1,1.1c-0.2,0-0.4-0.1-0.7,0c-0.3,0-0.6,0-1.1,0h0h0c0,0,0,0,0,0
			c0,0,0,0,0,0c0,0,0,0.1,0,0.2c0,0.1,0,0.3,0,0.5c0,0.2,0,0.5,0,0.8c0,0.3,0,0.8,0,1.3c0,0.5,0,1.2,0,2c0,0.8,0,1.7,0,2.7v0v0
			c-0.2,0-0.4,0-0.6,0.1c-0.2,0-0.4,0-0.6,0c-0.2,0-0.4,0-0.6,0c-0.2,0-0.4,0-0.6,0c0,0,0-0.2,0-0.5c0-0.3,0-0.8,0-1.4
			c0-0.6,0-1.4,0-2.3S42.7,6,42.7,4.7l0,0c-0.1-0.1-0.3-0.1-0.4-0.1c-0.2,0-0.3,0-0.5,0c-0.2,0-0.3,0-0.5,0c-0.1,0-0.2,0-0.3,0
			c0,0,0-0.1,0-0.3c0-0.2,0-0.3,0-0.6c0-0.2,0-0.4,0-0.7c0-0.2,0-0.5,0-0.7c0,0,0,0,0,0c0,0,0,0,0,0c1,0,2,0,3,0
			C44.9,2.2,45.9,2.3,46.9,2.4z"/>
		<path class="st0" d="M53.4,2.2l0.4,10c-0.2,0-0.3,0-0.5,0.1c-0.2,0-0.4,0-0.5,0c-0.2,0-0.3,0-0.5,0c-0.2,0-0.3,0-0.4,0h0
			c0-0.3-0.1-0.6-0.1-1c0-0.3,0-0.7,0-1c0-0.3,0-0.7,0-1c0-0.3,0-0.7-0.1-1l0,0c-0.3,0-0.6-0.1-0.8-0.1c-0.3,0-0.6,0-0.8,0.1
			c0,0.3,0,0.7,0,1c0,0.3,0,0.6,0,1c0,0.3,0,0.6,0,1c0,0.3,0,0.6-0.1,0.9c-0.1,0.1-0.3,0.1-0.5,0.1c-0.2,0-0.4,0-0.6,0
			c-0.2,0-0.4,0-0.5,0c-0.2,0-0.3,0-0.4,0.1c0-0.3,0-0.6-0.1-1.1c0-0.5,0-1-0.1-1.6c0-0.6,0-1.2,0-1.8c0-0.6,0-1.3,0-2
			c0-0.7,0-1.3,0-1.9c0-0.6,0-1.2,0-1.6v0h0h0c0.1,0,0.3,0,0.5,0c0.2,0,0.3,0,0.5,0c0.2,0,0.3,0,0.5,0c0.2,0,0.3,0,0.4,0.1
			c0.1,0.7,0.1,1.3,0.1,1.9c0,0.6,0.1,1.2,0.2,1.8h0c0.2,0.1,0.5,0.1,0.8,0c0.3,0,0.5,0,0.8-0.1h0c0.1-0.7,0.1-1.3,0.1-1.8
			c0-0.6,0-1.2,0-1.9c0.1,0,0.3-0.1,0.4-0.1c0.2,0,0.3,0,0.5-0.1c0.2,0,0.4,0,0.5,0C53.1,2.2,53.2,2.2,53.4,2.2z"/>
		<path class="st0" d="M60.8,10.4L60.8,10.4c0,0.3,0,0.6,0,1c0,0.3-0.1,0.6-0.1,0.9c-1,0-2,0-3,0c-1,0-2,0-2.9-0.1
			c0-0.8,0-1.7,0-2.5c0-0.8,0-1.6,0-2.4c0-0.8,0-1.6,0-2.4c0-0.8,0-1.6,0.1-2.4c0.4,0,0.8,0,1.2-0.1c0.4,0,0.9,0,1.3,0
			c0.4,0,0.9,0,1.3,0c0.4,0,0.8,0,1.1,0c0.3,0,0.6,0,0.8,0c0.2,0,0.3,0,0.3,0c0,0.3,0.1,0.7,0,1c0,0.3,0,0.7,0,1v0
			c-0.3,0.1-0.6,0.1-0.9,0.1c-0.3,0-0.6,0-0.9,0c-0.3,0-0.6,0-0.9,0c-0.3,0-0.6,0-0.9,0h0l0,0c0,0.3,0,0.6,0,0.9c0,0.3,0,0.6,0,0.8
			l0,0c0.3,0,0.6,0,0.9,0c0.3,0,0.6,0,0.9,0v0c0,0.3,0.1,0.6,0,1c0,0.3,0,0.7,0,1c-0.1,0-0.3,0.1-0.5,0.1c-0.2,0-0.4,0-0.5,0
			c-0.2,0-0.3,0-0.5,0c-0.1,0-0.2,0-0.3,0.1c0,0.3-0.1,0.6,0,0.9c0,0.3,0,0.6,0,0.9l0,0c0.6,0,1.2,0,1.9,0
			C59.5,10.4,60.2,10.4,60.8,10.4z"/>
		<path class="st0" d="M27.4,20.3L27.4,20.3c0,0.1,0,0.2,0,0.3c0,0.1,0,0.2,0,0.3c-0.1,0.7-0.3,1.3-0.7,1.8c-0.4,0.6-0.8,1-1.3,1.4
			c-0.5,0.4-1.1,0.7-1.8,0.8c-0.6,0.2-1.3,0.2-2,0.1c0,0.2,0,0.4,0,0.6s0,0.5,0,0.8c0,0.4,0,0.8,0,1.4c0,0.6,0,1.4,0.1,2.4v0
			c0,0,0,0,0,0c0,0,0,0,0,0c-0.2,0.1-0.4,0.1-0.7,0.1c-0.3,0-0.6,0-0.9,0c-0.3,0-0.7,0-1,0c-0.3,0-0.6,0-0.8-0.1
			c0-1-0.1-2.1-0.1-3.3c0-1.2,0-2.4,0-3.7c0-1.3,0-2.5,0-3.8c0-1.3,0-2.5-0.1-3.6c0.6-0.2,1.2-0.3,1.9-0.3c0.7-0.1,1.4-0.1,2,0
			c0.7,0.1,1.3,0.2,2,0.4c0.6,0.2,1.2,0.5,1.7,0.8c0.5,0.4,0.9,0.8,1.2,1.4C27.2,18.8,27.4,19.5,27.4,20.3z M23.7,19.4
			c-0.3-0.3-0.8-0.5-1.2-0.5c-0.5-0.1-0.9-0.1-1.4,0.1c0,0,0,0-0.1,0c0,0.3,0,0.5,0,0.8c0,0.3,0,0.6,0,0.8c0,0.3,0,0.5,0,0.8
			c0,0.3,0.1,0.5,0.1,0.7h0.1c0.2,0,0.5,0,0.7,0c0.3,0,0.5,0,0.7-0.1c0.2,0,0.5-0.1,0.7-0.2c0.2-0.1,0.4-0.2,0.6-0.4
			c0.1-0.2,0.2-0.3,0.2-0.5c0-0.2,0.1-0.4,0-0.6c0-0.2-0.1-0.4-0.2-0.5C24.1,19.7,23.9,19.5,23.7,19.4z"/>
		<path class="st0" d="M37.3,27.7L37.3,27.7c0,0.5,0,1,0,1.4c0,0.5-0.1,0.9-0.2,1.3c-1.4,0-2.9,0-4.3,0.1c-1.5,0-2.9,0-4.2-0.1
			c0-1.2,0-2.4,0-3.6c0-1.2,0-2.4-0.1-3.6c0-1.2,0-2.4,0-3.6c0-1.2,0.1-2.4,0.1-3.6c0.5,0,1.1-0.1,1.8-0.1c0.6,0,1.3,0,1.9-0.1
			c0.6,0,1.3,0,1.9,0c0.6,0,1.1,0,1.6,0c0.5,0,0.8,0,1.1,0c0.3,0,0.4,0,0.4,0c0.1,0.5,0.1,1,0.1,1.5c0,0.5-0.1,1-0.1,1.5v0
			c-0.4,0.1-0.9,0.2-1.3,0.2c-0.5,0-0.9,0-1.4,0c-0.5,0-0.9,0-1.4,0c-0.5,0-0.9,0-1.4,0.1h-0.1l0,0c0,0.4,0,0.8-0.1,1.2
			c0,0.4,0,0.8,0.1,1.2l0,0c0.4,0,0.8,0,1.3,0c0.4,0,0.9,0,1.3,0v0c0.1,0.5,0.1,0.9,0.1,1.4c0,0.5,0,1,0,1.5
			c-0.2,0.1-0.4,0.1-0.7,0.1c-0.3,0-0.5,0-0.8,0c-0.2,0-0.5,0-0.7,0c-0.2,0-0.3,0-0.4,0.1c-0.1,0.4-0.1,0.9-0.1,1.4
			c0,0.5,0,0.9,0.1,1.3l0,0c0.9,0,1.8,0,2.7,0.1C35.5,27.7,36.4,27.8,37.3,27.7z"/>
		<path class="st0" d="M46.6,30.7c-0.3,0-0.6,0-1-0.1c-0.4,0-0.7-0.1-1-0.1c-0.5-1-0.9-2-1.4-3c-0.5-1-0.8-1.9-1.2-2.8l-0.2-0.6
			c-0.1-0.2-0.1-0.3-0.2-0.4c0-0.1-0.1-0.2-0.1-0.2c0,0,0,0.2-0.1,0.5c0,0.3,0,0.8-0.1,1.3c0,0.5,0,1.1,0,1.7c0,0.6,0,1.2,0,1.8
			c0,0.3,0,0.6,0,0.9c0,0.3,0,0.6,0,0.8c-0.2,0-0.3,0.1-0.5,0.1c-0.2,0-0.3,0-0.5,0c-0.3,0-0.7,0-1-0.1c-0.3,0-0.7-0.1-1-0.1v-1.5
			c0-1.3,0-2.6,0-3.8c0-1.2,0-2.5,0-3.8c0-1,0-1.9,0-2.9c0-0.9,0.1-1.9,0.1-2.7c0.1,0,0.3,0,0.4-0.1c0.2,0,0.3,0,0.5,0
			c0.1,0,0.2,0,0.4,0c0.2,0,0.4,0,0.6,0c0.2,0,0.4,0,0.5,0.1c0.1,0,0.2,0.1,0.2,0.1c0.1,0.3,0.2,0.5,0.3,0.6
			c0.1,0.2,0.2,0.3,0.2,0.5c0.1,0.2,0.2,0.3,0.3,0.5c0.1,0.2,0.2,0.4,0.3,0.7c0,0.1,0.1,0.2,0.2,0.4c0.1,0.2,0.2,0.4,0.3,0.7
			c0.1,0.3,0.3,0.5,0.4,0.8c0.1,0.3,0.3,0.5,0.4,0.8c0.1,0.2,0.2,0.4,0.3,0.6c0.1,0.2,0.1,0.2,0.1,0.2c0,0,0.1-0.2,0.1-0.4
			c0-0.3,0-0.5,0-0.7c0-0.6,0-1.1,0-1.6c0-0.5,0-1,0-1.5c0-0.3,0-0.6,0-0.9c0-0.3,0-0.6,0-1c0.5-0.1,1-0.1,1.5-0.1
			c0.5,0,1,0,1.4,0.1v6.7c0,0.6,0,1.2,0,1.8c0,0.6,0,1.2,0,1.8c0,0.4,0,0.8,0,1.2c0,0.4,0,0.8,0,1.1c0,0.3,0,0.6,0,0.8
			c0,0.3,0,0.6,0,0.8v0.4c0,0-0.1,0-0.2,0.1C47,30.7,46.8,30.7,46.6,30.7z"/>
		<path class="st0" d="M53.2,23.3c0.2-0.1,0.5-0.2,0.9-0.2c0.4,0,0.8,0,1.3,0c0.5,0,0.9,0,1.3,0.1c0.4,0,0.7,0.1,0.8,0.1h0l0,0
			c0.1,0.7,0.1,1.5,0.2,2.3c0,0.8,0,1.6-0.2,2.4c-0.1,0.7-0.3,1.3-0.6,1.6c-0.4,0.4-0.8,0.7-1.3,0.9c-0.3,0.1-0.7,0.2-1.1,0.3
			c-0.4,0.1-0.8,0.1-1.1,0.2c-0.4,0-0.8,0-1.1,0c-0.4,0-0.7-0.1-1.1-0.3c-0.6-0.2-1-0.6-1.3-1c-0.3-0.4-0.5-0.9-0.7-1.5
			c0-0.2-0.1-0.4-0.1-0.6c0-0.3-0.1-0.5-0.1-0.8c0-0.4-0.1-0.8-0.1-1.2c0-0.4-0.1-0.7-0.1-1.1c0-0.4,0-0.7,0-1.1c0-0.4,0-0.9,0-1.4
			c0-0.4,0-0.9,0.1-1.4c0-0.5,0.1-0.9,0.1-1.4c0.1-0.5,0.2-0.9,0.4-1.3c0.2-0.4,0.5-0.8,0.9-1.1c0.3-0.2,0.6-0.4,0.9-0.5
			c0.3-0.1,0.7-0.2,1.1-0.3c0.8-0.1,1.5-0.1,2.2,0.1c0.7,0.1,1.3,0.4,1.8,0.8c0.5,0.4,0.9,0.9,1.1,1.5c0.3,0.6,0.3,1.4,0.2,2.2
			l0,0.1c0,0-0.1,0.1-0.2,0.1s-0.3,0-0.5,0c-0.2,0-0.4,0-0.5,0c-0.1,0-0.3,0-0.4,0c-0.1,0-0.3,0-0.4,0c-0.2,0-0.3,0-0.5-0.1
			c0-0.1-0.1-0.3-0.2-0.5c-0.1-0.2-0.2-0.4-0.3-0.6c-0.1-0.2-0.3-0.3-0.4-0.5c-0.2-0.1-0.3-0.2-0.5-0.2c-0.2,0-0.5,0-0.7,0
			c-0.2,0-0.4,0.1-0.6,0.3c0,0-0.1,0.1-0.1,0.2c0,0.1-0.1,0.2-0.1,0.3c-0.1,0.3-0.2,0.7-0.2,1.2c-0.1,0.5-0.1,1-0.1,1.5
			c0,0.5,0,1.1,0,1.7c0,0.6,0,1.1,0.1,1.6c0,0.3,0.1,0.6,0.2,1c0.1,0.4,0.3,0.6,0.5,0.9c0.1,0.1,0.3,0.1,0.5,0.2c0.2,0,0.4,0,0.7,0
			c0.2,0,0.4-0.1,0.6-0.2c0.2-0.1,0.3-0.2,0.4-0.3c0.1-0.1,0.2-0.3,0.3-0.5c0-0.1,0-0.1,0.1-0.3c0-0.1,0-0.3,0-0.4
			c0-0.1,0-0.3,0-0.4c0-0.1,0-0.2-0.1-0.2c-0.1,0-0.2,0-0.3,0c-0.1,0-0.3,0-0.5,0c-0.2,0-0.3,0-0.4,0c-0.1,0-0.2,0-0.3-0.1
			c0-0.2,0-0.4-0.1-0.6c0-0.2,0-0.3,0-0.5c0-0.2,0-0.3,0-0.5C53.2,23.8,53.2,23.6,53.2,23.3L53.2,23.3
			C53.1,23.3,53.1,23.3,53.2,23.3L53.2,23.3z"/>
		<path class="st0" d="M68,16.6c0.1,1.8,0.1,3.6,0.1,5.4c0,1.8-0.1,3.6-0.3,5.4c-0.1,0.9-0.5,1.7-1,2.3c-0.6,0.6-1.4,1-2.4,1.1
			c-0.6,0.1-1.2,0-1.8-0.1c-0.6-0.1-1.2-0.3-1.7-0.6c-0.5-0.3-0.9-0.6-1.3-1.1c-0.3-0.5-0.5-1-0.6-1.6c0-1.8,0-3.7,0.1-5.6
			c0-1.9,0-3.7,0-5.6l0,0h0c0.2,0,0.4,0,0.7,0c0.3,0,0.5,0,0.8,0c0.3,0,0.5,0,0.8,0c0.3,0,0.5,0.1,0.7,0.1v0
			c-0.2,3.4-0.1,6.8,0.2,10.3c0.1,0.3,0.3,0.6,0.5,0.7c0.3,0.2,0.5,0.2,0.8,0.2c0.3,0,0.5-0.1,0.8-0.3c0.2-0.2,0.4-0.4,0.5-0.8
			c0.1-1.7,0.1-3.4,0.1-5.1c0-1.7,0-3.4,0.1-5c0.2,0,0.4,0,0.7-0.1c0.3,0,0.6-0.1,0.9-0.1c0.3,0,0.6,0,0.8,0
			C67.6,16.4,67.8,16.5,68,16.6z"/>
		<path class="st0" d="M72.8,15.9h0.5V16c0,1.2,0,2.4-0.1,3.6c0,1.2-0.1,2.4-0.1,3.6c0,1.2,0,2.4,0,3.6c0,1.2,0.1,2.4,0.1,3.6
			c-0.1,0.1-0.3,0.2-0.7,0.2c-0.4,0-0.7,0-1.1,0c-0.4,0-0.8,0-1.2-0.1c-0.4,0-0.6,0-0.8,0c0.1-1.3,0.1-2.5,0.1-3.8
			c0-1.3,0-2.5-0.1-3.8c0-1.2-0.1-2.5-0.1-3.7c0-1.2,0.1-2.4,0.2-3.6v0c0.1,0,0.2,0,0.4,0c0.2,0,0.4,0,0.4,0c0.3,0,0.5,0,0.9,0.1
			C71.7,15.9,72.2,15.9,72.8,15.9z"/>
		<path class="st0" d="M83,30.7c-0.3,0-0.6,0-1-0.1c-0.4,0-0.7-0.1-1-0.1c-0.5-1-0.9-2-1.4-3c-0.5-1-0.8-1.9-1.2-2.8l-0.2-0.6
			c-0.1-0.2-0.1-0.3-0.2-0.4c0-0.1-0.1-0.2-0.1-0.2c0,0,0,0.2-0.1,0.5c0,0.3,0,0.8-0.1,1.3c0,0.5,0,1.1,0,1.7c0,0.6,0,1.2,0,1.8
			c0,0.3,0,0.6,0,0.9c0,0.3,0,0.6,0,0.8c-0.2,0-0.3,0.1-0.5,0.1c-0.2,0-0.3,0-0.5,0c-0.3,0-0.7,0-1-0.1c-0.3,0-0.7-0.1-1-0.1v-1.5
			c0-1.3,0-2.6,0-3.8c0-1.2,0-2.5,0-3.8c0-1,0-1.9,0-2.9c0-0.9,0.1-1.9,0.1-2.7c0.1,0,0.3,0,0.4-0.1c0.2,0,0.3,0,0.5,0
			c0.1,0,0.2,0,0.4,0c0.2,0,0.4,0,0.6,0c0.2,0,0.4,0,0.5,0.1c0.1,0,0.2,0.1,0.2,0.1c0.1,0.3,0.2,0.5,0.3,0.6
			c0.1,0.2,0.2,0.3,0.2,0.5c0.1,0.2,0.2,0.3,0.3,0.5c0.1,0.2,0.2,0.4,0.3,0.7c0,0.1,0.1,0.2,0.2,0.4c0.1,0.2,0.2,0.4,0.3,0.7
			c0.1,0.3,0.3,0.5,0.4,0.8c0.1,0.3,0.3,0.5,0.4,0.8c0.1,0.2,0.2,0.4,0.3,0.6c0.1,0.2,0.1,0.2,0.1,0.2c0,0,0.1-0.2,0.1-0.4
			c0-0.3,0-0.5,0-0.7c0-0.6,0-1.1,0-1.6c0-0.5,0-1,0-1.5c0-0.3,0-0.6,0-0.9c0-0.3,0-0.6,0-1c0.5-0.1,1-0.1,1.5-0.1
			c0.5,0,1,0,1.4,0.1v6.7c0,0.6,0,1.2,0,1.8c0,0.6,0,1.2,0,1.8c0,0.4,0,0.8,0,1.2c0,0.4,0,0.8,0,1.1c0,0.3,0,0.6,0,0.8
			c0,0.3,0,0.6,0,0.8v0.4c0,0-0.1,0-0.2,0.1C83.4,30.7,83.2,30.7,83,30.7z"/>
	</g>
</g>
<g>
	<g>
		<path class="st1" d="M47.8,1.3c0,0.3,0,0.7,0,1.1c0,0.4,0,0.8-0.1,1.1c-0.2,0-0.4-0.1-0.7,0c-0.3,0-0.6,0-1.1,0h0h0c0,0,0,0,0,0
			c0,0,0,0,0,0c0,0,0,0.1,0,0.2c0,0.1,0,0.3,0,0.5c0,0.2,0,0.5,0,0.8c0,0.3,0,0.8,0,1.3c0,0.5,0,1.2,0,2c0,0.8,0,1.7,0,2.7v0v0
			c-0.2,0-0.4,0-0.6,0.1c-0.2,0-0.4,0-0.6,0c-0.2,0-0.4,0-0.6,0c-0.2,0-0.4,0-0.6,0c0,0,0-0.2,0-0.5c0-0.3,0-0.8,0-1.4
			c0-0.6,0-1.4,0-2.3c0-0.9-0.1-2.1-0.1-3.4l0,0c-0.1-0.1-0.3-0.1-0.4-0.1c-0.2,0-0.3,0-0.5,0c-0.2,0-0.3,0-0.5,0
			c-0.1,0-0.2,0-0.3,0c0,0,0-0.1,0-0.3c0-0.2,0-0.3,0-0.6c0-0.2,0-0.4,0-0.7c0-0.2,0-0.5,0-0.7c0,0,0,0,0,0c0,0,0,0,0,0c1,0,2,0,3,0
			C45.8,1.1,46.8,1.2,47.8,1.3z"/>
		<path class="st1" d="M54.2,1.1l0.4,10c-0.2,0-0.3,0-0.5,0.1c-0.2,0-0.4,0-0.5,0c-0.2,0-0.3,0-0.5,0c-0.2,0-0.3,0-0.4,0h0
			c0-0.3-0.1-0.6-0.1-1c0-0.3,0-0.7,0-1c0-0.3,0-0.7,0-1c0-0.3,0-0.7-0.1-1l0,0c-0.3,0-0.6-0.1-0.8-0.1c-0.3,0-0.6,0-0.8,0.1
			c0,0.3,0,0.7,0,1c0,0.3,0,0.6,0,1c0,0.3,0,0.6,0,1c0,0.3,0,0.6-0.1,0.9c-0.1,0.1-0.3,0.1-0.5,0.1c-0.2,0-0.4,0-0.6,0
			c-0.2,0-0.4,0-0.5,0c-0.2,0-0.3,0-0.4,0.1c0-0.3,0-0.6-0.1-1.1c0-0.5,0-1-0.1-1.6c0-0.6,0-1.2,0-1.8c0-0.6,0-1.3,0-2
			c0-0.7,0-1.3,0-1.9c0-0.6,0-1.2,0-1.6v0h0h0c0.1,0,0.3,0,0.5,0c0.2,0,0.3,0,0.5,0c0.2,0,0.3,0,0.5,0c0.2,0,0.3,0,0.4,0.1
			c0.1,0.7,0.1,1.3,0.1,1.9c0,0.6,0.1,1.2,0.2,1.8h0c0.2,0.1,0.5,0.1,0.8,0c0.3,0,0.5,0,0.8-0.1h0c0.1-0.7,0.1-1.3,0.1-1.8
			c0-0.6,0-1.2,0-1.9c0.1,0,0.3-0.1,0.4-0.1c0.2,0,0.3,0,0.5-0.1c0.2,0,0.4,0,0.5,0C53.9,1.1,54.1,1.1,54.2,1.1z"/>
		<path class="st1" d="M61.7,9.3L61.7,9.3c0,0.3,0,0.6,0,1c0,0.3-0.1,0.6-0.1,0.9c-1,0-2,0-3,0c-1,0-2,0-2.9-0.1c0-0.8,0-1.7,0-2.5
			c0-0.8,0-1.6,0-2.4c0-0.8,0-1.6,0-2.4c0-0.8,0-1.6,0.1-2.4c0.4,0,0.8,0,1.2-0.1c0.4,0,0.9,0,1.3,0c0.4,0,0.9,0,1.3,0
			c0.4,0,0.8,0,1.1,0s0.6,0,0.8,0c0.2,0,0.3,0,0.3,0c0,0.3,0.1,0.7,0,1c0,0.3,0,0.7,0,1v0c-0.3,0.1-0.6,0.1-0.9,0.1
			c-0.3,0-0.6,0-0.9,0c-0.3,0-0.6,0-0.9,0c-0.3,0-0.6,0-0.9,0h0l0,0c0,0.3,0,0.6,0,0.9c0,0.3,0,0.6,0,0.8l0,0c0.3,0,0.6,0,0.9,0
			c0.3,0,0.6,0,0.9,0v0c0,0.3,0.1,0.6,0,1c0,0.3,0,0.7,0,1c-0.1,0-0.3,0.1-0.5,0.1c-0.2,0-0.4,0-0.5,0c-0.2,0-0.3,0-0.5,0
			c-0.1,0-0.2,0-0.3,0.1c0,0.3-0.1,0.6,0,0.9c0,0.3,0,0.6,0,0.9l0,0c0.6,0,1.2,0,1.9,0C60.4,9.3,61,9.3,61.7,9.3z"/>
		<path class="st1" d="M28.3,19.2L28.3,19.2c0,0.1,0,0.2,0,0.3c0,0.1,0,0.2,0,0.3c-0.1,0.7-0.3,1.3-0.7,1.8c-0.4,0.6-0.8,1-1.3,1.4
			c-0.5,0.4-1.1,0.7-1.8,0.8c-0.6,0.2-1.3,0.2-2,0.1c0,0.2,0,0.4,0,0.6s0,0.5,0,0.8c0,0.4,0,0.8,0,1.4c0,0.6,0,1.4,0.1,2.4v0
			c0,0,0,0,0,0c0,0,0,0,0,0c-0.2,0.1-0.4,0.1-0.7,0.1c-0.3,0-0.6,0-0.9,0c-0.3,0-0.7,0-1,0c-0.3,0-0.6,0-0.8-0.1
			c0-1-0.1-2.1-0.1-3.3c0-1.2,0-2.4,0-3.7c0-1.3,0-2.5,0-3.8c0-1.3,0-2.5-0.1-3.6c0.6-0.2,1.2-0.3,1.9-0.3c0.7-0.1,1.4-0.1,2,0
			c0.7,0.1,1.3,0.2,2,0.4c0.6,0.2,1.2,0.5,1.7,0.8c0.5,0.4,0.9,0.8,1.2,1.4C28.1,17.7,28.2,18.4,28.3,19.2z M24.6,18.3
			c-0.3-0.3-0.8-0.5-1.2-0.5c-0.5-0.1-0.9-0.1-1.4,0.1c0,0,0,0-0.1,0c0,0.3,0,0.5,0,0.8c0,0.3,0,0.6,0,0.8c0,0.3,0,0.5,0,0.8
			c0,0.3,0.1,0.5,0.1,0.7h0.1c0.2,0,0.5,0,0.7,0c0.3,0,0.5,0,0.7-0.1c0.2,0,0.5-0.1,0.7-0.2c0.2-0.1,0.4-0.2,0.6-0.4
			c0.1-0.2,0.2-0.3,0.2-0.5c0-0.2,0.1-0.4,0-0.6c0-0.2-0.1-0.4-0.2-0.5C24.9,18.6,24.8,18.4,24.6,18.3z"/>
		<path class="st1" d="M38.2,26.6L38.2,26.6c0,0.5,0,1,0,1.4c0,0.5-0.1,0.9-0.2,1.3c-1.4,0-2.9,0-4.3,0.1c-1.5,0-2.9,0-4.2-0.1
			c0-1.2,0-2.4,0-3.6c0-1.2,0-2.4-0.1-3.6c0-1.2,0-2.4,0-3.6c0-1.2,0.1-2.4,0.1-3.6c0.5,0,1.1-0.1,1.8-0.1c0.6,0,1.3,0,1.9-0.1
			c0.6,0,1.3,0,1.9,0c0.6,0,1.1,0,1.6,0c0.5,0,0.8,0,1.1,0c0.3,0,0.4,0,0.4,0c0.1,0.5,0.1,1,0.1,1.5c0,0.5-0.1,1-0.1,1.5v0
			c-0.4,0.1-0.9,0.2-1.3,0.2c-0.5,0-0.9,0-1.4,0c-0.5,0-0.9,0-1.4,0c-0.5,0-0.9,0-1.4,0.1h-0.1l0,0c0,0.4,0,0.8-0.1,1.2
			c0,0.4,0,0.8,0.1,1.2l0,0c0.4,0,0.8,0,1.3,0c0.4,0,0.9,0,1.3,0v0c0.1,0.5,0.1,0.9,0.1,1.4c0,0.5,0,1,0,1.5
			c-0.2,0.1-0.4,0.1-0.7,0.1c-0.3,0-0.5,0-0.8,0c-0.2,0-0.5,0-0.7,0c-0.2,0-0.3,0-0.4,0.1c-0.1,0.4-0.1,0.9-0.1,1.4
			c0,0.5,0,0.9,0.1,1.3l0,0c0.9,0,1.8,0,2.7,0.1C36.3,26.6,37.3,26.7,38.2,26.6z"/>
		<path class="st1" d="M47.4,29.6c-0.3,0-0.6,0-1-0.1c-0.4,0-0.7-0.1-1-0.1c-0.5-1-0.9-2-1.4-3c-0.5-1-0.8-1.9-1.2-2.8l-0.2-0.6
			c-0.1-0.2-0.1-0.3-0.2-0.4c0-0.1-0.1-0.2-0.1-0.2c0,0,0,0.2-0.1,0.5c0,0.3,0,0.8-0.1,1.3c0,0.5,0,1.1,0,1.7c0,0.6,0,1.2,0,1.8
			c0,0.3,0,0.6,0,0.9c0,0.3,0,0.6,0,0.8c-0.2,0-0.3,0.1-0.5,0.1c-0.2,0-0.3,0-0.5,0c-0.3,0-0.7,0-1-0.1c-0.3,0-0.7-0.1-1-0.1V28
			c0-1.3,0-2.6,0-3.8c0-1.2,0-2.5,0-3.8c0-1,0-1.9,0-2.9c0-0.9,0.1-1.9,0.1-2.7c0.1,0,0.3,0,0.4-0.1c0.2,0,0.3,0,0.5,0
			c0.1,0,0.2,0,0.4,0c0.2,0,0.4,0,0.6,0c0.2,0,0.4,0,0.5,0.1c0.1,0,0.2,0.1,0.2,0.1c0.1,0.3,0.2,0.5,0.3,0.6
			c0.1,0.2,0.2,0.3,0.2,0.5c0.1,0.2,0.2,0.3,0.3,0.5c0.1,0.2,0.2,0.4,0.3,0.7c0,0.1,0.1,0.2,0.2,0.4c0.1,0.2,0.2,0.4,0.3,0.7
			c0.1,0.3,0.3,0.5,0.4,0.8c0.1,0.3,0.3,0.5,0.4,0.8c0.1,0.2,0.2,0.4,0.3,0.6c0.1,0.2,0.1,0.2,0.1,0.2c0,0,0.1-0.2,0.1-0.4
			c0-0.3,0-0.5,0-0.7c0-0.6,0-1.1,0-1.6c0-0.5,0-1,0-1.5c0-0.3,0-0.6,0-0.9c0-0.3,0-0.6,0-1c0.5-0.1,1-0.1,1.5-0.1
			c0.5,0,1,0,1.4,0.1v6.7c0,0.6,0,1.2,0,1.8c0,0.6,0,1.2,0,1.8c0,0.4,0,0.8,0,1.2c0,0.4,0,0.8,0,1.1c0,0.3,0,0.6,0,0.8
			c0,0.3,0,0.6,0,0.8v0.4c0,0-0.1,0-0.2,0.1C47.8,29.6,47.7,29.6,47.4,29.6z"/>
		<path class="st1" d="M54.1,22.2c0.2-0.1,0.5-0.2,0.9-0.2c0.4,0,0.8,0,1.3,0c0.5,0,0.9,0,1.3,0.1c0.4,0,0.7,0.1,0.8,0.1h0l0,0
			c0.1,0.7,0.1,1.5,0.2,2.3c0,0.8,0,1.6-0.2,2.4c-0.1,0.7-0.3,1.3-0.6,1.6c-0.4,0.4-0.8,0.7-1.3,0.9c-0.3,0.1-0.7,0.2-1.1,0.3
			c-0.4,0.1-0.8,0.1-1.1,0.2c-0.4,0-0.8,0-1.1,0c-0.4,0-0.7-0.1-1.1-0.3c-0.6-0.2-1-0.6-1.3-1c-0.3-0.4-0.5-0.9-0.7-1.5
			c0-0.2-0.1-0.4-0.1-0.6c0-0.3-0.1-0.5-0.1-0.8c0-0.4-0.1-0.8-0.1-1.2c0-0.4-0.1-0.7-0.1-1.1c0-0.4,0-0.7,0-1.1c0-0.4,0-0.9,0-1.4
			c0-0.4,0-0.9,0.1-1.4c0-0.5,0.1-0.9,0.1-1.4c0.1-0.5,0.2-0.9,0.4-1.3c0.2-0.4,0.5-0.8,0.9-1.1c0.3-0.2,0.6-0.4,0.9-0.5
			c0.3-0.1,0.7-0.2,1.1-0.3c0.8-0.1,1.5-0.1,2.2,0.1c0.7,0.1,1.3,0.4,1.8,0.8c0.5,0.4,0.9,0.9,1.1,1.5c0.3,0.6,0.3,1.4,0.2,2.2
			l0,0.1c0,0-0.1,0.1-0.2,0.1s-0.3,0-0.5,0c-0.2,0-0.4,0-0.5,0c-0.1,0-0.3,0-0.4,0c-0.1,0-0.3,0-0.4,0c-0.2,0-0.3,0-0.5-0.1
			c0-0.1-0.1-0.3-0.2-0.5c-0.1-0.2-0.2-0.4-0.3-0.6c-0.1-0.2-0.3-0.3-0.4-0.5c-0.2-0.1-0.3-0.2-0.5-0.2c-0.2,0-0.5,0-0.7,0
			c-0.2,0-0.4,0.1-0.6,0.3c0,0-0.1,0.1-0.1,0.2c0,0.1-0.1,0.2-0.1,0.3c-0.1,0.3-0.2,0.7-0.2,1.2c-0.1,0.5-0.1,1-0.1,1.5
			c0,0.5,0,1.1,0,1.7c0,0.6,0,1.1,0.1,1.6c0,0.3,0.1,0.6,0.2,1c0.1,0.4,0.3,0.6,0.5,0.9c0.1,0.1,0.3,0.1,0.5,0.2c0.2,0,0.4,0,0.7,0
			c0.2,0,0.4-0.1,0.6-0.2c0.2-0.1,0.3-0.2,0.4-0.3c0.1-0.1,0.2-0.3,0.3-0.5c0-0.1,0-0.1,0.1-0.3c0-0.1,0-0.3,0-0.4
			c0-0.1,0-0.3,0-0.4c0-0.1,0-0.2-0.1-0.2c-0.1,0-0.2,0-0.3,0c-0.1,0-0.3,0-0.5,0c-0.2,0-0.3,0-0.4,0c-0.1,0-0.2,0-0.3-0.1
			c0-0.2,0-0.4-0.1-0.6c0-0.2,0-0.3,0-0.5c0-0.2,0-0.3,0-0.5C54,22.7,54,22.5,54.1,22.2L54.1,22.2C54,22.2,54,22.2,54.1,22.2
			L54.1,22.2z"/>
		<path class="st1" d="M68.8,15.5c0.1,1.8,0.1,3.6,0.1,5.4c0,1.8-0.1,3.6-0.3,5.4c-0.1,0.9-0.5,1.7-1,2.3c-0.6,0.6-1.4,1-2.4,1.1
			c-0.6,0.1-1.2,0-1.8-0.1c-0.6-0.1-1.2-0.3-1.7-0.6c-0.5-0.3-0.9-0.6-1.3-1.1c-0.3-0.5-0.5-1-0.6-1.6c0-1.8,0-3.7,0.1-5.6
			c0-1.9,0-3.7,0-5.6l0,0h0c0.2,0,0.4,0,0.7,0c0.3,0,0.5,0,0.8,0c0.3,0,0.5,0,0.8,0c0.3,0,0.5,0.1,0.7,0.1v0
			c-0.2,3.4-0.1,6.8,0.2,10.3c0.1,0.3,0.3,0.6,0.5,0.7c0.3,0.2,0.5,0.2,0.8,0.2c0.3,0,0.5-0.1,0.8-0.3c0.2-0.2,0.4-0.4,0.5-0.8
			c0.1-1.7,0.1-3.4,0.1-5.1c0-1.7,0-3.4,0.1-5c0.2,0,0.4,0,0.7-0.1c0.3,0,0.6-0.1,0.9-0.1c0.3,0,0.6,0,0.8,0
			C68.4,15.3,68.7,15.4,68.8,15.5z"/>
		<path class="st1" d="M73.7,14.8h0.5v0.1c0,1.2,0,2.4-0.1,3.6c0,1.2-0.1,2.4-0.1,3.6c0,1.2,0,2.4,0,3.6c0,1.2,0.1,2.4,0.1,3.6
			c-0.1,0.1-0.3,0.2-0.7,0.2c-0.4,0-0.7,0-1.1,0c-0.4,0-0.8,0-1.2-0.1c-0.4,0-0.6,0-0.8,0c0.1-1.3,0.1-2.5,0.1-3.8
			c0-1.3,0-2.5-0.1-3.8c0-1.2-0.1-2.5-0.1-3.7c0-1.2,0.1-2.4,0.2-3.6v0c0.1,0,0.2,0,0.4,0c0.2,0,0.4,0,0.4,0c0.3,0,0.5,0,0.9,0.1
			C72.6,14.8,73.1,14.8,73.7,14.8z"/>
		<path class="st1" d="M83.9,29.6c-0.3,0-0.6,0-1-0.1c-0.4,0-0.7-0.1-1-0.1c-0.5-1-0.9-2-1.4-3c-0.5-1-0.8-1.9-1.2-2.8l-0.2-0.6
			c-0.1-0.2-0.1-0.3-0.2-0.4c0-0.1-0.1-0.2-0.1-0.2c0,0,0,0.2-0.1,0.5c0,0.3,0,0.8-0.1,1.3c0,0.5,0,1.1,0,1.7c0,0.6,0,1.2,0,1.8
			c0,0.3,0,0.6,0,0.9c0,0.3,0,0.6,0,0.8c-0.2,0-0.3,0.1-0.5,0.1c-0.2,0-0.3,0-0.5,0c-0.3,0-0.7,0-1-0.1c-0.3,0-0.7-0.1-1-0.1V28
			c0-1.3,0-2.6,0-3.8c0-1.2,0-2.5,0-3.8c0-1,0-1.9,0-2.9c0-0.9,0.1-1.9,0.1-2.7c0.1,0,0.3,0,0.4-0.1c0.2,0,0.3,0,0.5,0
			c0.1,0,0.2,0,0.4,0c0.2,0,0.4,0,0.6,0c0.2,0,0.4,0,0.5,0.1c0.1,0,0.2,0.1,0.2,0.1c0.1,0.3,0.2,0.5,0.3,0.6
			c0.1,0.2,0.2,0.3,0.2,0.5c0.1,0.2,0.2,0.3,0.3,0.5c0.1,0.2,0.2,0.4,0.3,0.7c0,0.1,0.1,0.2,0.2,0.4c0.1,0.2,0.2,0.4,0.3,0.7
			c0.1,0.3,0.3,0.5,0.4,0.8c0.1,0.3,0.3,0.5,0.4,0.8c0.1,0.2,0.2,0.4,0.3,0.6c0.1,0.2,0.1,0.2,0.1,0.2c0,0,0.1-0.2,0.1-0.4
			c0-0.3,0-0.5,0-0.7c0-0.6,0-1.1,0-1.6c0-0.5,0-1,0-1.5c0-0.3,0-0.6,0-0.9c0-0.3,0-0.6,0-1c0.5-0.1,1-0.1,1.5-0.1
			c0.5,0,1,0,1.4,0.1v6.7c0,0.6,0,1.2,0,1.8c0,0.6,0,1.2,0,1.8c0,0.4,0,0.8,0,1.2c0,0.4,0,0.8,0,1.1c0,0.3,0,0.6,0,0.8
			c0,0.3,0,0.6,0,0.8v0.4c0,0-0.1,0-0.2,0.1C84.3,29.6,84.1,29.6,83.9,29.6z"/>
	</g>
</g>
</svg>
